<svg xmlns="http://www.w3.org/2000/svg" xmlns:xlink="http://www.w3.org/1999/xlink" width="275.074" height="75.646" viewBox="0 0 275.074 75.646">
  <defs>
    <clipPath id="clip-path">
      <rect id="Rectangle_5" data-name="Rectangle 5" width="275.074" height="75.646" fill="none"/>
    </clipPath>
  </defs>
  <g id="Group_6" data-name="Group 6" transform="translate(-582.671 -394)">
    <g id="Group_4" data-name="Group 4" transform="translate(582.671 394)">
      <g id="Group_3" data-name="Group 3" transform="translate(0 0)">
        <rect id="Rectangle_1" data-name="Rectangle 1" width="75.646" height="75.646" fill="#23364d"/>
        <g id="Group_2" data-name="Group 2" transform="translate(0 0)">
          <g id="Group_1" data-name="Group 1" clip-path="url(#clip-path)">
            <path id="Path_1" data-name="Path 1" d="M263.461,46.447Q258.244,50.9,250,50.9a43.424,43.424,0,0,1-11.129-1.287l1.009-8.9a27,27,0,0,0,10.469,2.052q8.068,0,8.068-6.26,0-2.991-3.165-4.9-.835-.487-6.956-3.026Q238.176,24.432,238.176,15.7a12.823,12.823,0,0,1,4.73-10.434q4.868-4.034,13.425-4.034a41.383,41.383,0,0,1,8.694.939l-.835,8.1a26.658,26.658,0,0,0-8.277-1.356q-7.9,0-7.9,5.773,0,2.782,3.2,4.695.695.418,7.1,3.13,10.258,4.383,10.26,12.834a13.92,13.92,0,0,1-5.113,11.094" transform="translate(-151.36 -0.784)" fill="#86c03f"/>
            <path id="Path_2" data-name="Path 2" d="M385.466,51.492H374.059L367.1,24.99a95.1,95.1,0,0,1-1.878-9.912h-.07a62.838,62.838,0,0,1-1.774,9.7l-6.956,26.71H345.644L333.4,3.427h9.912L349.852,30a77.6,77.6,0,0,1,1.773,9.738h.07q.9-5.7,1.878-9.46l7.339-26.85h9.807l7.408,26.711a67.53,67.53,0,0,1,1.913,9.32h.07a91.86,91.86,0,0,1,1.808-9.181l6.538-26.85h9.251Z" transform="translate(-211.876 -2.178)" fill="#86c03f"/>
            <rect id="Rectangle_2" data-name="Rectangle 2" width="9.251" height="48.065" transform="translate(192.509 1.249)" fill="#86c03f"/>
            <path id="Path_3" data-name="Path 3" d="M590.062,11.322V23.634h15.546v7.617H590.062V51.492h-9.251V3.427h25.7v7.9Z" transform="translate(-369.105 -2.178)" fill="#86c03f"/>
            <path id="Path_4" data-name="Path 4" d="M682.6,11.322v40.17h-9.286V11.322H660.866v-7.9h34.188v7.9Z" transform="translate(-419.98 -2.178)" fill="#86c03f"/>
            <path id="Path_5" data-name="Path 5" d="M239.59,182.43a2.936,2.936,0,0,0,1.172,1.163,3.443,3.443,0,0,0,1.641.382,3.274,3.274,0,0,0,1.076-.173,2.748,2.748,0,0,0,.877-.486,2.289,2.289,0,0,0,.59-.755,2.235,2.235,0,0,0,.217-1,1.917,1.917,0,0,0-.269-1.059,2.156,2.156,0,0,0-.72-.686,5.323,5.323,0,0,0-1.016-.46q-.564-.191-1.163-.382t-1.163-.434a3.891,3.891,0,0,1-1.016-.634,2.823,2.823,0,0,1-.72-.981,3.5,3.5,0,0,1-.269-1.458,3.159,3.159,0,0,1,.321-1.449,3.1,3.1,0,0,1,.868-1.059,3.867,3.867,0,0,1,1.258-.642,5.09,5.09,0,0,1,1.493-.217,4.826,4.826,0,0,1,1.866.356,3.549,3.549,0,0,1,1.484,1.189l-.99.712a2.907,2.907,0,0,0-1.016-.911,2.946,2.946,0,0,0-1.38-.3,3.745,3.745,0,0,0-1.059.148,2.641,2.641,0,0,0-.876.434,2.129,2.129,0,0,0-.6.721,2.19,2.19,0,0,0-.226,1.024,1.98,1.98,0,0,0,.468,1.415,3.312,3.312,0,0,0,1.172.781,12.407,12.407,0,0,0,1.528.5,7.39,7.39,0,0,1,1.527.581,3.3,3.3,0,0,1,1.172,1.016,3.026,3.026,0,0,1,.468,1.8,3.33,3.33,0,0,1-.312,1.475,3.249,3.249,0,0,1-.842,1.085,3.65,3.65,0,0,1-1.224.669,4.64,4.64,0,0,1-1.441.226,5.786,5.786,0,0,1-2.239-.425,4.094,4.094,0,0,1-1.753-1.432Z" transform="translate(-151.564 -109.371)" fill="#23364d"/>
            <path id="Path_6" data-name="Path 6" d="M268.052,172.958h1.18l5.173,12.29H273.12l-1.337-3.263h-6.509l-1.388,3.263h-1.2Zm.538,1.25-2.864,6.735h5.641Z" transform="translate(-166.938 -109.915)" fill="#23364d"/>
            <path id="Path_7" data-name="Path 7" d="M308.027,180.544a7.782,7.782,0,0,1-.226,1.892,4.333,4.333,0,0,1-.755,1.6,3.793,3.793,0,0,1-1.389,1.111,5.542,5.542,0,0,1-4.218,0,3.783,3.783,0,0,1-1.388-1.111,4.323,4.323,0,0,1-.755-1.6,7.764,7.764,0,0,1-.226-1.892v-7.586h1.146v7.29a8.779,8.779,0,0,0,.121,1.406,4.243,4.243,0,0,0,.478,1.388,2.935,2.935,0,0,0,1.007,1.059,3.791,3.791,0,0,0,3.454,0,2.938,2.938,0,0,0,1.007-1.059,4.251,4.251,0,0,0,.478-1.388,8.775,8.775,0,0,0,.121-1.406v-7.29h1.146Z" transform="translate(-190.059 -109.915)" fill="#23364d"/>
            <path id="Path_8" data-name="Path 8" d="M331.833,172.959h3.8a8.22,8.22,0,0,1,2.708.39,6.043,6.043,0,0,1,1.849,1,4.958,4.958,0,0,1,1.163,1.346,6.576,6.576,0,0,1,.877,2.638q.052.547.052.772t-.052.772a6.581,6.581,0,0,1-.877,2.638,4.952,4.952,0,0,1-1.163,1.345,6.036,6.036,0,0,1-1.849,1,8.22,8.22,0,0,1-2.708.39h-3.8Zm1.146,11.248h2.361a8.211,8.211,0,0,0,2.274-.3,5.211,5.211,0,0,0,1.84-.929,4.379,4.379,0,0,0,1.232-1.588,6,6,0,0,0,0-4.565,4.382,4.382,0,0,0-1.232-1.588,5.217,5.217,0,0,0-1.84-.929,8.223,8.223,0,0,0-2.274-.3h-2.361Z" transform="translate(-210.879 -109.915)" fill="#23364d"/>
            <rect id="Rectangle_3" data-name="Rectangle 3" width="1.146" height="12.29" transform="translate(133.972 63.044)" fill="#23364d"/>
            <path id="Path_9" data-name="Path 9" d="M391.309,182.43a2.936,2.936,0,0,0,1.172,1.163,3.443,3.443,0,0,0,1.64.382,3.275,3.275,0,0,0,1.076-.173,2.738,2.738,0,0,0,.876-.486,2.275,2.275,0,0,0,.59-.755,2.235,2.235,0,0,0,.217-1,1.917,1.917,0,0,0-.269-1.059,2.153,2.153,0,0,0-.721-.686,5.319,5.319,0,0,0-1.015-.46q-.564-.191-1.163-.382t-1.163-.434a3.886,3.886,0,0,1-1.015-.634,2.822,2.822,0,0,1-.72-.981,3.5,3.5,0,0,1-.269-1.458,3.159,3.159,0,0,1,.321-1.449,3.1,3.1,0,0,1,.868-1.059,3.865,3.865,0,0,1,1.259-.642,5.085,5.085,0,0,1,1.492-.217,4.824,4.824,0,0,1,1.866.356,3.544,3.544,0,0,1,1.484,1.189l-.99.712a2.9,2.9,0,0,0-1.015-.911,2.946,2.946,0,0,0-1.38-.3,3.747,3.747,0,0,0-1.059.148,2.641,2.641,0,0,0-.876.434,2.129,2.129,0,0,0-.6.721,2.19,2.19,0,0,0-.226,1.024,1.978,1.978,0,0,0,.468,1.415,3.312,3.312,0,0,0,1.172.781,12.386,12.386,0,0,0,1.528.5,7.4,7.4,0,0,1,1.527.581,3.3,3.3,0,0,1,1.172,1.016,3.026,3.026,0,0,1,.468,1.8,3.325,3.325,0,0,1-.313,1.475,3.238,3.238,0,0,1-.841,1.085,3.649,3.649,0,0,1-1.224.669,4.639,4.639,0,0,1-1.441.226,5.784,5.784,0,0,1-2.239-.425,4.1,4.1,0,0,1-1.753-1.432Z" transform="translate(-247.981 -109.371)" fill="#23364d"/>
            <path id="Path_10" data-name="Path 10" d="M414.407,172.959h1.18l3.055,10.883h.035l3.107-10.883h1.458l3.107,10.883h.035l3.055-10.883h1.181l-3.576,12.29h-1.406l-3.107-10.935H422.5l-3.107,10.935h-1.406Z" transform="translate(-263.355 -109.915)" fill="#23364d"/>
            <rect id="Rectangle_4" data-name="Rectangle 4" width="1.146" height="12.29" transform="translate(169.034 63.044)" fill="#23364d"/>
            <path id="Path_11" data-name="Path 11" d="M476.122,172.959h7.36V174h-6.214v4.374h5.78v1.041h-5.78v5.832h-1.146Z" transform="translate(-302.575 -109.915)" fill="#23364d"/>
            <path id="Path_12" data-name="Path 12" d="M502.752,174h-4.2v-1.041H508.1V174h-4.2v11.248h-1.146Z" transform="translate(-316.829 -109.915)" fill="#23364d"/>
            <path id="Path_13" data-name="Path 13" d="M541.312,182.43a2.934,2.934,0,0,0,1.172,1.163,3.44,3.44,0,0,0,1.64.382,3.276,3.276,0,0,0,1.076-.173,2.741,2.741,0,0,0,.876-.486,2.284,2.284,0,0,0,.59-.755,2.235,2.235,0,0,0,.217-1,1.917,1.917,0,0,0-.269-1.059,2.157,2.157,0,0,0-.721-.686,5.32,5.32,0,0,0-1.015-.46q-.564-.191-1.163-.382t-1.163-.434a3.891,3.891,0,0,1-1.015-.634,2.82,2.82,0,0,1-.72-.981,3.5,3.5,0,0,1-.269-1.458,3.159,3.159,0,0,1,.321-1.449,3.1,3.1,0,0,1,.868-1.059,3.865,3.865,0,0,1,1.259-.642,5.086,5.086,0,0,1,1.493-.217,4.826,4.826,0,0,1,1.866.356,3.547,3.547,0,0,1,1.484,1.189l-.99.712a2.909,2.909,0,0,0-1.015-.911,2.947,2.947,0,0,0-1.38-.3,3.744,3.744,0,0,0-1.059.148,2.637,2.637,0,0,0-.876.434,2.13,2.13,0,0,0-.6.721,2.189,2.189,0,0,0-.226,1.024,1.979,1.979,0,0,0,.469,1.415,3.309,3.309,0,0,0,1.172.781,12.4,12.4,0,0,0,1.527.5,7.4,7.4,0,0,1,1.528.581,3.3,3.3,0,0,1,1.172,1.016,3.029,3.029,0,0,1,.468,1.8,3.326,3.326,0,0,1-.313,1.475,3.244,3.244,0,0,1-.842,1.085,3.651,3.651,0,0,1-1.224.669,4.641,4.641,0,0,1-1.441.226,5.783,5.783,0,0,1-2.239-.425,4.1,4.1,0,0,1-1.754-1.432Z" transform="translate(-343.308 -109.371)" fill="#23364d"/>
            <path id="Path_14" data-name="Path 14" d="M569.774,172.958h1.181l5.172,12.29h-1.284l-1.337-3.263H567l-1.388,3.263h-1.2Zm.538,1.25-2.864,6.735h5.641Z" transform="translate(-358.682 -109.915)" fill="#23364d"/>
            <path id="Path_15" data-name="Path 15" d="M598.327,174h-4.2v-1.041h9.547V174h-4.2v11.248h-1.146Z" transform="translate(-377.567 -109.915)" fill="#23364d"/>
            <path id="Path_16" data-name="Path 16" d="M70.708,93.652l1.015,2.634,1.342-1.342V91.486a.418.418,0,0,1,.416-.421h.192c.327,0,.65,0,.973.019a24.635,24.635,0,0,1,4.143.505c.07.014.141.028.211.047.1.019.2.042.3.065.173.038.351.079.523.126.061.014.126.033.187.047-.187.3-.387.589-.6.865a10.7,10.7,0,0,1-1.515,1.6l2.09,2.095a13.583,13.583,0,0,0,2.38-2.768c.182-.276.355-.557.519-.851.112.047.225.089.332.136.159.065.318.131.472.2.038.014.07.033.108.047l.342.154a24.961,24.961,0,0,1,5.527,3.484,19.4,19.4,0,0,0-3.97-7.9c-.084-.1-.164-.2-.248-.29-.056-.065-.112-.126-.168-.192-.144-.164-.289-.327-.444-.486-.075-.079-.15-.159-.229-.238l-.211-.21a19.766,19.766,0,0,0-2.479-2.067,1.737,1.737,0,0,0-.149-.1c-.122-.084-.239-.168-.365-.248-.182-.121-.374-.243-.561-.355l-.112-.07c-.145-.084-.285-.168-.43-.248a19.217,19.217,0,0,0-7.238-2.379h0V81.6a4.769,4.769,0,0,0-2.2-4.162c-.051-.028-.1-.061-.154-.089-.051.028-.1.061-.15.089A4.946,4.946,0,0,0,68.169,81.6v.472h0a19.3,19.3,0,0,0-4.751,1.248,18.724,18.724,0,0,0-2.305,1.113c-.145.079-.285.164-.425.248-.038.023-.08.047-.117.07-.192.117-.379.234-.566.355l-.356.243c-.051.038-.1.075-.154.108a19.452,19.452,0,0,0-2.478,2.071c-.07.066-.136.136-.206.2-.079.084-.159.164-.234.248-.154.159-.3.318-.449.482-.051.061-.107.122-.159.187-.089.1-.168.2-.253.295a19.4,19.4,0,0,0-3.965,7.9,25.031,25.031,0,0,1,5.523-3.484l.346-.154a.982.982,0,0,0,.1-.047l.463-.2h.009c.113-.047.225-.094.337-.136.163.29.336.575.519.851a13.663,13.663,0,0,0,2.366,2.754l2.095-2.095a11.056,11.056,0,0,1-1.506-1.59c-.21-.276-.411-.566-.6-.86.066-.019.126-.033.187-.051.173-.042.351-.084.524-.122l.308-.07c.066-.014.131-.033.2-.042a24.57,24.57,0,0,1,4.129-.5c.332-.019.664-.023,1-.023h0a.416.416,0,0,1,.412.416v3.462l1.342,1.342h.079Z" transform="translate(-32.888 -49.153)" fill="#86c03f"/>
            <path id="Path_17" data-name="Path 17" d="M71.111,54.724l-1.707,1.7a13.781,13.781,0,0,0-4.12,10.46,20.919,20.919,0,0,1,2.235-1.819l.051-.038c.038-.023.075-.051.112-.075.121-.089.248-.168.369-.253s.215-.136.318-.2a10.984,10.984,0,0,1,3.119-5.99l1.707-1.7ZM79.3,46.531l-7.2,7.2,2.081,2.081,5.116-5.12L84.405,55.8l2.081-2.081Zm9.9,9.895L87.482,54.71,85.4,56.795l1.716,1.716A11.034,11.034,0,0,1,90.232,64.5c.1.065.206.131.313.2s.243.164.369.253a1.307,1.307,0,0,1,.14.1l.023.009a21.658,21.658,0,0,1,2.24,1.828,13.781,13.781,0,0,0-4.12-10.46" transform="translate(-41.479 -29.57)" fill="#86c03f"/>
            <path id="Path_18" data-name="Path 18" d="M78.753,42.093,86.548,34.3l7.795,7.794,2.081-2.081-9.875-9.875-9.875,9.875Z" transform="translate(-48.725 -19.152)" fill="#86c03f"/>
            <path id="Path_19" data-name="Path 19" d="M96.157,142.968,94,145.121,86,137.115l-.058-.058-.053.058-8.006,8.006-2.152-2.153,8.006-8.006-.208-.208-5.971-5.971,2.153-2.152,5.076,5.076,1.1,1.1.053.053.058-.053.992-1,5.2-5.2,2.153,2.152-.029.029-6.1,6.1-.063.068.15.15.073.184,0,0v-.009l.087-.015Z" transform="translate(-48.125 -80.46)" fill="#86c03f"/>
          </g>
        </g>
      </g>
    </g>
  </g>
</svg>
